<svg width="542" height="542" viewBox="0 0 542 542" fill="none" xmlns="http://www.w3.org/2000/svg">
<path fill-rule="evenodd" clip-rule="evenodd" d="M271 271H542C542 121.331 420.669 0 271 0V271Z" fill="url(#paint0_linear_770_594)"/>
<path fill-rule="evenodd" clip-rule="evenodd" d="M271 -1.18458e-05C121.331 -5.30354e-06 -6.54225e-06 121.331 0 271L271 271L271 -1.18458e-05Z" fill="url(#paint1_linear_770_594)"/>
<path fill-rule="evenodd" clip-rule="evenodd" d="M2.36916e-05 271C1.06071e-05 420.669 121.331 542 271 542L271 271L2.36916e-05 271Z" fill="url(#paint2_linear_770_594)"/>
<path fill-rule="evenodd" clip-rule="evenodd" d="M3.23164e-06 542C149.669 542 271 420.669 271 271L0 271L3.23164e-06 542Z" fill="url(#paint3_linear_770_594)"/>
<circle cx="387" cy="155" r="43" fill="black"/>
<defs>
<linearGradient id="paint0_linear_770_594" x1="579.5" y1="305" x2="271" y2="0" gradientUnits="userSpaceOnUse">
<stop stop-color="#4232FF"/>
<stop offset="1" stop-color="white"/>
</linearGradient>
<linearGradient id="paint1_linear_770_594" x1="305" y1="-37.5" x2="0" y2="271" gradientUnits="userSpaceOnUse">
<stop stop-color="#4232FF"/>
<stop offset="1" stop-color="white"/>
</linearGradient>
<linearGradient id="paint2_linear_770_594" x1="-37.5" y1="237" x2="271" y2="542" gradientUnits="userSpaceOnUse">
<stop stop-color="#4232FF"/>
<stop offset="1" stop-color="white"/>
</linearGradient>
<linearGradient id="paint3_linear_770_594" x1="-34" y1="579.5" x2="271" y2="271" gradientUnits="userSpaceOnUse">
<stop stop-color="#4232FF"/>
<stop offset="1" stop-color="white"/>
</linearGradient>
</defs>
</svg>
